<?xml version="1.0" encoding="UTF-8" standalone="no"?>
<svg
   viewBox="0 0 709.02228 564.32666"
   version="1.1"
   id="svg13"
   sodipodi:docname="logo.svg"
   width="709.02228"
   height="564.32666"
   inkscape:version="1.2 (dc2aedaf03, 2022-05-15)"
   inkscape:export-filename="logo.png"
   inkscape:export-xdpi="150"
   inkscape:export-ydpi="150"
   xmlns:inkscape="http://www.inkscape.org/namespaces/inkscape"
   xmlns:sodipodi="http://sodipodi.sourceforge.net/DTD/sodipodi-0.dtd"
   xmlns="http://www.w3.org/2000/svg"
   xmlns:svg="http://www.w3.org/2000/svg">
  <sodipodi:namedview
     id="namedview15"
     pagecolor="#505050"
     bordercolor="#eeeeee"
     borderopacity="1"
     inkscape:showpageshadow="0"
     inkscape:pageopacity="0"
     inkscape:pagecheckerboard="0"
     inkscape:deskcolor="#505050"
     showgrid="false"
     inkscape:zoom="0.80957031"
     inkscape:cx="211.84077"
     inkscape:cy="295.21834"
     inkscape:window-width="1920"
     inkscape:window-height="1009"
     inkscape:window-x="1912"
     inkscape:window-y="-8"
     inkscape:window-maximized="1"
     inkscape:current-layer="layer1" />
  <defs
     id="defs5">
    <rect
       x="-1667.5513"
       y="-410.09409"
       width="254.45596"
       height="244.57419"
       id="rect3599" />
    <clipPath
       id="icon-bg">
      <path
         d="M 0,0 H 512 V 512 H 0 Z"
         fill="#ffffff"
         fill-opacity="1"
         id="path2" />
    </clipPath>
  </defs>
  <g
     inkscape:groupmode="layer"
     id="layer1"
     inkscape:label="Layer 1"
     transform="translate(1241.2804,329.52476)">
    <path
       id="rect472-0-0-5"
       style="fill:#000000;stroke-width:2.10305;stroke-linecap:round;stroke-linejoin:round"
       d="M -584.50984 336.29581 L -476.09515 620.21675 C -469.9973 636.18627 -478.68006 654.23311 -495.5629 660.6797 L -562.64986 686.29616 L -462.99153 686.29579 C -447.44552 686.29579 -434.92911 674.01233 -434.92911 658.75481 L -434.9293 363.83745 C -434.9293 348.57993 -447.4438 336.29553 -462.98981 336.29553 L -584.50984 336.29581 z "
       transform="rotate(42.008629)" />
    <path
       id="rect472-0-0"
       style="fill:#000000;stroke-width:2.10305;stroke-linecap:round;stroke-linejoin:round"
       d="M -836.97547 69.423336 L -730.3447 345.62527 C -724.18818 361.57227 -732.80495 379.65011 -749.66398 386.15872 L -835.8254 419.42228 L -714.08091 419.42329 C -698.53491 419.42329 -686.01899 407.1401 -686.01899 391.88258 L -686.01803 96.964207 C -686.01803 81.706686 -698.53443 69.42192 -714.08043 69.42192 L -836.97547 69.423336 z "
       transform="rotate(21.109627)" />
    <path
       id="rect472-0"
       style="fill:#000000;stroke-width:2.10305;stroke-linecap:round;stroke-linejoin:round"
       d="M -954.62024 -280.76304 L -860.09876 4.9889119 C -854.73042 21.21822 -864.22253 38.852616 -881.38001 44.527974 L -956.07923 69.236959 L -853.87415 69.236959 C -838.32815 69.236959 -825.81165 56.953463 -825.81165 41.695943 L -825.81165 -253.22203 C -825.81165 -268.47955 -838.32815 -280.76304 -853.87415 -280.76304 L -954.62024 -280.76304 z " />
    <path
       id="rect472-0-7"
       style="fill:#000000;stroke-width:2.10305;stroke-linecap:round;stroke-linejoin:round"
       d="M -857.84961 -604.29611 C -860.48887 -605.09841 -863.29849 -605.53006 -866.21336 -605.53006 L -1060.0899 -605.53143 C -1075.6359 -605.53143 -1088.1512 -593.24712 -1088.1512 -577.9896 L -1088.1518 -283.07123 C -1088.1518 -267.81371 -1075.6359 -255.53122 -1060.0899 -255.53122 L -866.21335 -255.52985 C -850.66734 -255.52985 -838.15209 -267.81416 -838.15209 -283.07168 L -838.15145 -577.99005 C -838.15145 -590.38679 -846.41281 -600.8195 -857.84961 -604.29611 z M -927.62977 -483.09608 L -930.75428 -458.34462 L -910.64098 -458.31984 L -910.50647 -441.45566 L -932.78582 -441.48101 L -935.90963 -416.42074 L -915.79632 -416.39596 L -915.81622 -399.53142 L -937.94116 -399.55713 L -941.06568 -374.80568 L -958.54909 -374.82662 L -955.42457 -399.57808 L -978.16839 -399.60484 L -981.29291 -374.85338 L -998.62191 -374.87468 L -995.49739 -399.62614 L -1015.767 -399.65117 L -1015.7471 -416.51572 L -993.46647 -416.48789 L -990.18764 -441.55037 L -1010.456 -441.57294 L -1010.4361 -458.43748 L -988.15672 -458.41213 L -985.03221 -483.16358 L -967.7032 -483.14228 L -970.82772 -458.39083 L -948.0839 -458.36407 L -944.95938 -483.11552 L -927.62977 -483.09608 z M -950.11482 -441.50231 L -972.85864 -441.52907 L -976.13686 -416.46845 L -953.39304 -416.44169 L -950.11482 -441.50231 z "
       transform="rotate(-18.303203)" />
  </g>
</svg>
